<svg id="Fit_escola_color" xmlns="http://www.w3.org/2000/svg" xmlns:xlink="http://www.w3.org/1999/xlink" width="183.917" height="66.85" viewBox="0 0 183.917 66.85">
  <defs>
    <linearGradient id="linear-gradient" x1="0.5" x2="0.5" y2="1" gradientUnits="objectBoundingBox">
      <stop offset="0" stop-color="#ed770c"/>
      <stop offset="1" stop-color="#f09440"/>
    </linearGradient>
  </defs>
  <g id="Layer_1" transform="translate(0 0)">
    <g id="Grupo_1533" data-name="Grupo 1533">
      <g id="Grupo_1532" data-name="Grupo 1532" transform="translate(0 0.23)">
        <g id="Grupo_1530" data-name="Grupo 1530">
          <path id="Caminho_787" data-name="Caminho 787" d="M135.219,51.01a66.073,66.073,0,0,1,9.877.648,5.365,5.365,0,0,1,4.791,4.125,82.075,82.075,0,0,1,2.97,17.317c.014.2.037.46.046.658h9.537a114.276,114.276,0,0,0-2.327-23.437,7.523,7.523,0,0,0-6.272-6.272A87.524,87.524,0,0,0,138.686,42c-.023,0-1.844-.092-1.881-.092l-1.6,9.1Z" transform="translate(-96.18 -41.689)" fill="#4dafff"/>
          <path id="Caminho_788" data-name="Caminho 788" d="M59.959,77h0c-.023-.225-.037-.437-.046-.658a82.051,82.051,0,0,1,.34-17.552A5.36,5.36,0,0,1,64.378,54,78.106,78.106,0,0,1,81.695,51.04c1.435-.106,2.842-.189,4.18-.248l1.623-9.3c-1.315-.037-2.653-.06-4.042-.06-9.679,0-18.536.823-24.541,2.313a7.518,7.518,0,0,0-6.272,6.272C51.282,55.758,50.33,64.9,50.33,74.579c0,1.375.06,4.088.06,4.088h0L59.963,77Z" transform="translate(-50.33 -41.43)" fill="#0e295b"/>
          <path id="Caminho_789" data-name="Caminho 789" d="M80.326,144.188a66.422,66.422,0,0,1-12.415-.6,5.365,5.365,0,0,1-4.791-4.125,71.193,71.193,0,0,1-2.547-13.215l-9.762,1.715a106.1,106.1,0,0,0,2.1,16.977,7.523,7.523,0,0,0,6.272,6.272,101.94,101.94,0,0,0,21.157,2.281l-.014-9.3h0Z" transform="translate(-50.589 -87.248)" fill="url(#linear-gradient)"/>
          <g id="Grupo_1528" data-name="Grupo 1528" transform="translate(32.808 47.932)">
            <path id="Caminho_790" data-name="Caminho 790" d="M126.094,164.79l.014-12.756h-3.734l-.014,12.756Zm3.242-9.822v5.463c0,3.1,1.623,4.653,4.5,4.653a9.026,9.026,0,0,0,2.313-.248V161.98a5.822,5.822,0,0,1-1.329.143c-1.2,0-1.752-.589-1.738-1.94v-5.214h3.242v-2.9h-3.242V148.2l-3.734.658v3.2h-1.867v2.9l1.858.014Zm12.581,10.153a3.925,3.925,0,0,0,3.348-1.646l.046,1.329h3.49v-7.5c0-3.642-2.032-5.578-5.674-5.578a13.614,13.614,0,0,0-4.92.855v2.993a12.306,12.306,0,0,1,4.322-.906c1.715,0,2.676.786,2.676,2.161-.294-.023-.786-.046-1.255-.046-3.936,0-6.415,1.623-6.415,4.391.014,2.409,1.7,3.936,4.382,3.936Zm2.4-6.014c.294,0,.763.023.938.046v1.012a2.145,2.145,0,0,1-2.221,2.281c-1.15,0-1.867-.515-1.867-1.55,0-1.173,1.127-1.784,3.15-1.784Zm10.631,6.024a3.949,3.949,0,0,0,3.444-1.692l.046,1.375h3.582l.014-12.756H158.3v7.518c0,1.55-.763,2.524-2.019,2.524s-1.89-.832-1.89-2.387v-7.67h-3.734v8.281c0,2.938,1.678,4.805,4.3,4.805Zm4.709-14.788V147.1l-6.212,1.1v2.138Z" transform="translate(-122.047 -146.442)" fill="#0e295b"/>
            <path id="Caminho_791" data-name="Caminho 791" d="M123.873,149.946a2.1,2.1,0,0,0,2.221-2.138,2.208,2.208,0,1,0-2.216,2.138Z" transform="translate(-121.68 -145.67)" fill="#0e295b"/>
          </g>
          <g id="Grupo_1529" data-name="Grupo 1529" transform="translate(14.834 35.494)">
            <path id="Caminho_792" data-name="Caminho 792" d="M118.2,124.59a2.254,2.254,0,0,0-1.94.938l-.023-.763H114.23v7.109h2.1v-4.18c0-.855.423-1.412,1.127-1.412s1.058.469,1.058,1.329v4.276h2.1v-4.617a2.4,2.4,0,0,0-2.419-2.676Z" transform="translate(-99.681 -121.845)" fill="#0e295b"/>
            <path id="Caminho_793" data-name="Caminho 793" d="M99.674,132.267a2.223,2.223,0,0,0,1.927-.938l.023.763h2.009l.014-7.109h-2.1v4.18c0,.855-.423,1.412-1.127,1.412s-1.058-.469-1.058-1.329V124.97h-2.1v4.617a2.386,2.386,0,0,0,2.419,2.676Z" transform="translate(-90.514 -122.05)" fill="#0e295b"/>
            <path id="Caminho_794" data-name="Caminho 794" d="M84.691,129.667h-2.1V120.48h5.923v1.775H84.7v2.124h3.136v1.775H84.705v3.513h-.014Z" transform="translate(-82.59 -119.625)" fill="#0e295b"/>
            <path id="Caminho_795" data-name="Caminho 795" d="M133.618,129.113a2.7,2.7,0,0,1-1.54-.446,2.911,2.911,0,0,1-1.035-1.278,5.5,5.5,0,0,1,.014-3.968,3.065,3.065,0,0,1,1.044-1.306,2.59,2.59,0,0,1,1.55-.46,2.335,2.335,0,0,1,1.844.8V119.13h2.092v9.8h-1.9l-.023-.855a2.086,2.086,0,0,1-.832.763,2.543,2.543,0,0,1-1.209.28Zm.543-1.669a1.14,1.14,0,0,0,1.012-.543,2.6,2.6,0,0,0,.363-1.5,2.737,2.737,0,0,0-.363-1.527,1.214,1.214,0,0,0-2.023,0,2.627,2.627,0,0,0-.363,1.5,2.737,2.737,0,0,0,.363,1.527A1.187,1.187,0,0,0,134.161,127.444Z" transform="translate(-108.567 -118.895)" fill="#0e295b"/>
            <path id="Caminho_796" data-name="Caminho 796" d="M167.278,132.062a3.989,3.989,0,0,1-1.927-.446,3.015,3.015,0,0,1-1.255-1.292,4.234,4.234,0,0,1-.446-1.986,3.891,3.891,0,0,1,.469-1.963,3.383,3.383,0,0,1,1.292-1.315,3.81,3.81,0,0,1,1.927-.469,4.165,4.165,0,0,1,.961.12,2.322,2.322,0,0,1,.74.317V126.7a2.341,2.341,0,0,0-1.444-.437,1.715,1.715,0,0,0-1.352.543,2.114,2.114,0,0,0-.483,1.5,2.154,2.154,0,0,0,.506,1.517,1.713,1.713,0,0,0,1.352.566,2.413,2.413,0,0,0,1.517-.46v1.655a2.658,2.658,0,0,1-.8.354,3.924,3.924,0,0,1-1.058.129Zm-.869-.308h1.15l-.258.892a1.624,1.624,0,0,1,1.035.423,1.191,1.191,0,0,1,.386.892,1.329,1.329,0,0,1-.552,1.127,2.606,2.606,0,0,1-1.573.4,4.045,4.045,0,0,1-.892-.12v-1.035a1.891,1.891,0,0,0,.386.069,3.167,3.167,0,0,0,.331.023c.529,0,.8-.166.8-.506,0-.3-.281-.46-.832-.46h-.423l.446-1.715Z" transform="translate(-126.376 -121.845)" fill="#0e295b"/>
            <path id="Caminho_797" data-name="Caminho 797" d="M183.022,120.7a1.453,1.453,0,0,1-.749-.189c-.221-.129-.409-.248-.589-.363a.932.932,0,0,0-.483-.189c-.258,0-.386.2-.386.6v.106H179.56v-.106a2.3,2.3,0,0,1,.386-1.444,1.316,1.316,0,0,1,1.117-.492,1.419,1.419,0,0,1,.75.189c.207.129.409.248.589.363a.857.857,0,0,0,.469.189c.257,0,.386-.2.386-.6v-.106h1.278v.106a2.3,2.3,0,0,1-.386,1.444A1.357,1.357,0,0,1,183.022,120.7Z" transform="translate(-134.971 -118.62)" fill="#0e295b"/>
            <path id="Caminho_798" data-name="Caminho 798" d="M196.92,132.084a3.587,3.587,0,0,1-1.844-.46,3.067,3.067,0,0,1-1.209-1.292,4.293,4.293,0,0,1-.437-1.963,4.188,4.188,0,0,1,.437-1.973,3.138,3.138,0,0,1,1.223-1.306,3.908,3.908,0,0,1,3.679,0,3.067,3.067,0,0,1,1.209,1.292,4.294,4.294,0,0,1,.437,1.963,4.188,4.188,0,0,1-.437,1.973,3.2,3.2,0,0,1-1.209,1.306,3.634,3.634,0,0,1-1.844.46Zm0-1.669a1.14,1.14,0,0,0,1.012-.543,2.6,2.6,0,0,0,.363-1.5,2.736,2.736,0,0,0-.363-1.527,1.214,1.214,0,0,0-2.023,0,2.627,2.627,0,0,0-.363,1.5,2.736,2.736,0,0,0,.363,1.527A1.154,1.154,0,0,0,196.92,130.415Z" transform="translate(-142.463 -121.866)" fill="#0e295b"/>
            <path id="Caminho_799" data-name="Caminho 799" d="M180.551,124.62a7.6,7.6,0,0,0-2.759.483v1.669a6.878,6.878,0,0,1,2.432-.506c.961,0,1.5.437,1.5,1.209-.165-.014-.446-.023-.7-.023-2.207,0-3.605.906-3.605,2.442a2.189,2.189,0,0,0,2.455,2.2,2.223,2.223,0,0,0,1.881-.915l.023.74h1.963v-4.171a2.843,2.843,0,0,0-3.182-3.127Zm1.186,4.7a1.2,1.2,0,0,1-1.246,1.269c-.648,0-1.044-.294-1.044-.869,0-.658.635-1,1.761-1,.165,0,.423.014.529.023Z" transform="translate(-133.815 -121.861)" fill="#0e295b"/>
            <path id="Caminho_800" data-name="Caminho 800" d="M150.791,124.62a7.6,7.6,0,0,0-2.759.483v1.669a6.877,6.877,0,0,1,2.432-.506c.961,0,1.5.437,1.5,1.209-.166-.014-.446-.023-.7-.023-2.207,0-3.605.906-3.605,2.442a2.189,2.189,0,0,0,2.455,2.2,2.222,2.222,0,0,0,1.881-.915l.023.74h1.963v-4.171a2.843,2.843,0,0,0-3.182-3.127Zm1.186,4.7a1.2,1.2,0,0,1-1.246,1.269c-.648,0-1.044-.294-1.044-.869,0-.658.635-1,1.761-1,.165,0,.423.014.529.023Z" transform="translate(-117.739 -121.861)" fill="#0e295b"/>
          </g>
        </g>
        <g id="Grupo_1531" data-name="Grupo 1531" transform="translate(118.143 28.105)">
          <path id="Caminho_801" data-name="Caminho 801" d="M318.112,121.35H307.26V104.93h10.608v3.164h-6.883v3.357h5.67v3.164h-5.67v3.577h7.127v3.164Z" transform="translate(-307.26 -103.836)"/>
          <path id="Caminho_802" data-name="Caminho 802" d="M339.165,125.665a10.491,10.491,0,0,1-2.262-.244,7.013,7.013,0,0,1-1.922-.7v-2.9a6.72,6.72,0,0,0,1.812.777,7.506,7.506,0,0,0,1.982.267q1.945,0,1.945-1.191a.932.932,0,0,0-.5-.8,7.855,7.855,0,0,0-1.936-.7q-3.359-.952-3.357-3.844a3.445,3.445,0,0,1,1.471-2.9,6.416,6.416,0,0,1,3.927-1.094,8.422,8.422,0,0,1,1.789.193,5.438,5.438,0,0,1,1.494.533V115.9a6.745,6.745,0,0,0-3.186-.777c-1.251,0-1.871.363-1.871,1.094a.86.86,0,0,0,.464.754,8.074,8.074,0,0,0,1.848.681,5.5,5.5,0,0,1,2.727,1.471,3.625,3.625,0,0,1,.851,2.492,3.529,3.529,0,0,1-1.412,2.943,6.157,6.157,0,0,1-3.867,1.094Z" transform="translate(-322.207 -107.833)"/>
          <path id="Caminho_803" data-name="Caminho 803" d="M365.374,125.66a6.84,6.84,0,0,1-3.407-.8,5.505,5.505,0,0,1-2.226-2.3,7.452,7.452,0,0,1-.791-3.541,7.078,7.078,0,0,1,.828-3.5,5.949,5.949,0,0,1,2.3-2.35,6.758,6.758,0,0,1,3.417-.841,6.566,6.566,0,0,1,1.7.221,4.137,4.137,0,0,1,1.315.561V116.1a4.16,4.16,0,0,0-2.557-.777,3.081,3.081,0,0,0-2.4.961,4.582,4.582,0,0,0,.023,5.389,3.04,3.04,0,0,0,2.4,1,4.188,4.188,0,0,0,2.676-.828V124.8a4.332,4.332,0,0,1-1.412.621,7.426,7.426,0,0,1-1.872.23Z" transform="translate(-335.182 -107.827)"/>
          <path id="Caminho_804" data-name="Caminho 804" d="M389.31,125.67a6.319,6.319,0,0,1-3.26-.814,5.54,5.54,0,0,1-2.152-2.313,7.623,7.623,0,0,1-.768-3.513,7.708,7.708,0,0,1,.768-3.527,5.574,5.574,0,0,1,2.166-2.336,6.256,6.256,0,0,1,3.246-.828,6.366,6.366,0,0,1,3.26.814,5.54,5.54,0,0,1,2.152,2.313,7.623,7.623,0,0,1,.768,3.513,7.709,7.709,0,0,1-.768,3.527,5.6,5.6,0,0,1-2.152,2.336A6.236,6.236,0,0,1,389.31,125.67Zm0-2.993a2.045,2.045,0,0,0,1.789-.961,4.806,4.806,0,0,0,.644-2.69,4.972,4.972,0,0,0-.644-2.727,2.137,2.137,0,0,0-3.577-.014,4.768,4.768,0,0,0-.644,2.69,4.972,4.972,0,0,0,.644,2.727,2.032,2.032,0,0,0,1.789.975Z" transform="translate(-348.243 -107.838)"/>
          <path id="Caminho_805" data-name="Caminho 805" d="M414.18,120.065V102.55h3.7v17.515Z" transform="translate(-365.015 -102.55)"/>
          <path id="Caminho_806" data-name="Caminho 806" d="M430.561,125.665a4.375,4.375,0,0,1-3.016-1.012,3.433,3.433,0,0,1-1.145-2.713,3.917,3.917,0,0,1,1.678-3.37,8.024,8.024,0,0,1,4.745-1.2c.179,0,.359,0,.533.014s.359.018.533.037c-.161-1.425-1.081-2.143-2.75-2.143a6.058,6.058,0,0,0-3.6,1.145v-2.9a7.015,7.015,0,0,1,4.207-1.191,5.725,5.725,0,0,1,4.184,1.435,5.5,5.5,0,0,1,1.458,4.111v7.468h-3.016L434.18,124a3.731,3.731,0,0,1-1.522,1.219,5.048,5.048,0,0,1-2.106.437Zm3.357-5.964c-.244-.014-.552-.023-.924-.023a4.6,4.6,0,0,0-2.3.474,1.49,1.49,0,0,0-.814,1.352,1.513,1.513,0,0,0,.488,1.191,1.858,1.858,0,0,0,1.287.437,2.133,2.133,0,0,0,1.6-.681,2.328,2.328,0,0,0,.658-1.678Z" transform="translate(-371.616 -107.833)"/>
        </g>
      </g>
      <rect id="Retângulo_860" data-name="Retângulo 860" width="0.993" height="66.808" transform="translate(95.055)"/>
    </g>
  </g>
</svg>
